<svg width="24" height="24" viewBox="0 0 24 24" xmlns="http://www.w3.org/2000/svg">
    <g fill="none" fill-rule="evenodd">
        <path d="M0 0h24v24H0z"/>
        <path d="m8.957 4 .08.004.048-.003L22.938 4c.283 0 .531.107.743.32.213.213.319.462.319.747v13.866c0 .303-.106.56-.319.774-.212.195-.46.293-.743.293H9.135l-.12-.005-.029.001H7.961L0 11.998 7.961 4h.996zM13.5 7h-1.875a.617.617 0 0 0-.453.188.646.646 0 0 0-.172.453V9.5l2.5 2.5-2.5 2.5v1.875c0 .177.057.328.172.453a.646.646 0 0 0 .453.172H13.5l2.5-2.5 2.5 2.5h1.875a.617.617 0 0 0 .625-.625V14.5L18.5 12 21 9.5V7.625a.6.6 0 0 0-.188-.438.6.6 0 0 0-.437-.187H18.5L16 9.5 13.5 7z" fill="#04021D"/>
    </g>
</svg>
